<svg width="20" height="20" viewBox="0 0 20 20" fill="none" xmlns="http://www.w3.org/2000/svg">
<rect width="20" height="20" rx="6" fill="#EDEDED"/>
<path d="M14.8238 5.31882C15.0657 5.11207 15.3877 4.99776 15.7217 5.00003C16.0557 5.0023 16.3757 5.12096 16.6141 5.33098C16.8525 5.541 16.9907 5.82594 16.9995 6.12569C17.0084 6.42543 16.8871 6.71653 16.6614 6.93756L9.809 14.6305C9.69117 14.7444 9.54895 14.8358 9.39086 14.8993C9.23277 14.9627 9.06205 14.9969 8.8889 14.9998C8.71575 15.0027 8.54373 14.9742 8.38313 14.916C8.22253 14.8579 8.07665 14.7712 7.9542 14.6613L3.40996 10.5821C3.28341 10.4762 3.18191 10.3485 3.11151 10.2067C3.04111 10.0649 3.00325 9.91178 3.0002 9.75653C2.99715 9.60128 3.02896 9.44707 3.09375 9.30309C3.15853 9.15912 3.25495 9.02834 3.37726 8.91854C3.49957 8.80875 3.64527 8.72219 3.80565 8.66404C3.96604 8.60588 4.13783 8.57732 4.31077 8.58006C4.48372 8.5828 4.65428 8.61678 4.81228 8.67998C4.97028 8.74318 5.11248 8.83429 5.2304 8.94789L8.82664 12.1746L14.7912 5.35274L14.8238 5.31882Z" fill="#A4A4A4"/>
</svg>
