<svg width="40" height="40" viewBox="0 0 40 40" fill="none" xmlns="http://www.w3.org/2000/svg">
<path fill-rule="evenodd" clip-rule="evenodd" d="M31.6809 3.51421C29.5407 4.14858 27.2176 5.47583 25.44 6.66936C24.7385 7.14036 23.7891 6.95181 23.3195 6.24822C22.8499 5.54462 23.0379 4.59243 23.7394 4.12143C25.6089 2.8662 28.2342 1.33861 30.8145 0.57379C33.3051 -0.164451 36.418 -0.361844 38.4077 2.09233C40.2907 4.41494 39.9305 7.60925 39.163 10.1439C38.3674 12.7715 36.9576 15.2931 35.8922 16.8384C35.8165 16.955 35.737 17.0776 35.6539 17.2059C33.6705 20.2669 29.6092 26.5349 24.7721 30.3622C24.1094 30.8866 23.1482 30.7728 22.6254 30.1081C22.1026 29.4433 22.216 28.4793 22.8788 27.9549C27.3056 24.4522 31.1292 18.5584 33.1424 15.455C33.2112 15.3489 33.278 15.246 33.3425 15.1466L33.3545 15.1282L33.367 15.1101C34.306 13.7516 35.5551 11.5077 36.2379 9.25288C36.9521 6.89459 36.8882 5.07803 36.0359 4.02678C35.2903 3.10711 33.9107 2.85326 31.6809 3.51421Z" fill="white"/>
<path fill-rule="evenodd" clip-rule="evenodd" d="M8.66976 36.5085C11.0399 35.8158 13.5823 34.4245 15.332 33.2497C16.0335 32.7787 16.9829 32.9672 17.4524 33.6708C17.922 34.3744 17.7341 35.3266 17.0326 35.7976C15.1351 37.0716 12.3022 38.6405 9.52504 39.4522C8.13787 39.8577 6.66916 40.103 5.29303 39.9654C3.88646 39.8248 2.51146 39.272 1.51046 38.0373C-0.372594 35.7147 -0.0123908 32.5204 0.755139 29.9857C1.55083 27.3581 2.96062 24.8364 4.0261 23.2911C5.96414 20.3098 10.2265 14.2874 15.2356 10.324C15.8984 9.7996 16.8595 9.91337 17.3823 10.5781C17.9052 11.2429 17.7917 12.2069 17.129 12.7313C12.5198 16.3782 8.47261 22.0628 6.57562 24.983L6.56363 25.0015L6.55113 25.0196C5.61215 26.3781 4.36301 28.6219 3.68021 30.8768C2.96609 33.2351 3.02997 35.0516 3.88226 36.1029C4.24895 36.5552 4.78763 36.8336 5.59624 36.9144C6.43529 36.9983 7.48327 36.8553 8.66976 36.5085Z" fill="white"/>
<path fill-rule="evenodd" clip-rule="evenodd" d="M36.3953 31.699C35.7563 29.5438 34.4217 27.1955 33.2444 25.3996C32.7806 24.6922 32.9766 23.7416 33.682 23.2763C34.3874 22.811 35.3351 23.0073 35.7988 23.7147C37.025 25.5851 38.5572 28.2331 39.3255 30.8243C40.0647 33.3172 40.279 36.4698 37.7558 38.4287C35.4007 40.2571 32.2108 39.8513 29.6785 39.0487C27.0535 38.2166 24.5432 36.7757 23.0074 35.6919C20.0746 33.7399 14.3013 29.7895 10.3863 24.7307C9.86879 24.0619 9.98988 23.0988 10.6568 22.5795C11.3237 22.0603 12.2839 22.1815 12.8014 22.8502C16.3832 27.4785 21.7781 31.1939 24.7158 33.1487L24.734 33.1607L24.7518 33.1734C26.1031 34.1293 28.3408 35.4088 30.6003 36.125C32.9629 36.8739 34.8052 36.8425 35.885 36.0042C36.7969 35.2963 37.0635 33.9524 36.3953 31.699Z" fill="white"/>
<path fill-rule="evenodd" clip-rule="evenodd" d="M3.60821 8.1744C4.24814 10.3526 5.58413 12.7232 6.7581 14.5142C7.22175 15.2216 7.02573 16.1722 6.32028 16.6376C5.61482 17.1029 4.66708 16.9068 4.20343 16.1994C2.97434 14.3244 1.44331 11.6547 0.675804 9.04231C-0.0607522 6.53525 -0.278486 3.35752 2.2467 1.39697C4.60207 -0.431742 7.79193 -0.0262516 10.3242 0.776147C12.9491 1.60791 15.4592 3.04854 16.9949 4.13224C19.9415 6.09356 25.706 10.1276 29.6161 15.1804C30.1336 15.8491 30.0124 16.8122 29.3455 17.3315C28.6785 17.8509 27.7183 17.7298 27.2008 17.0611C23.6151 12.4274 18.2096 8.62068 15.2862 6.67561L15.2681 6.66352L15.2503 6.65092C13.8991 5.69511 11.6614 4.41581 9.40198 3.69986C7.03952 2.95126 5.19716 2.98277 4.11728 3.82119C3.20721 4.52777 2.93733 5.89089 3.60821 8.1744Z" fill="white"/>
<path fill-rule="evenodd" clip-rule="evenodd" d="M19.9863 22.1727C21.3434 22.1727 22.4 21.0852 22.4 19.7972C22.4 18.5091 21.3434 17.4216 19.9863 17.4216C18.6293 17.4216 17.5726 18.5091 17.5726 19.7972C17.5726 21.0852 18.6293 22.1727 19.9863 22.1727ZM19.9863 25.2389C23.0077 25.2389 25.4571 22.8025 25.4571 19.7972C25.4571 16.7918 23.0077 14.3555 19.9863 14.3555C16.9649 14.3555 14.5156 16.7918 14.5156 19.7972C14.5156 22.8025 16.9649 25.2389 19.9863 25.2389Z" fill="white"/>
</svg>
