<svg width="60" height="56" viewBox="0 0 60 56" fill="none" xmlns="http://www.w3.org/2000/svg">
<path d="M32.2462 29.9988C32.967 30.9048 33.6493 31.9995 34.0577 32.7334L35.5195 35.6571C35.7007 36.7061 36.2319 39.0657 37.0377 40.6933C37.1976 41.1484 37.5212 41.6211 37.909 42.0749C38.3133 42.548 38.8175 43.0348 39.3609 43.5036C39.9724 44.0311 40.6437 44.5446 41.2967 44.9995L40.5812 44.9992L37.7427 44.0538L35.4153 42.1919L34.4725 39.835L32.9789 34.8563L32.9665 34.815L32.9472 34.7764C32.4444 33.7708 31.138 31.2582 29.9287 29.2428C29.5355 28.5874 28.9353 28.1163 28.2558 27.779L30.3419 28.4743L30.4189 28.5H30.5C30.6143 28.5 30.8448 28.5857 31.1942 28.8765C31.5232 29.1503 31.8834 29.5427 32.2462 29.9988ZM26.4884 27.1898C25.7374 27.0327 24.972 26.9657 24.2925 26.9533C25.0351 26.906 25.9335 26.8172 26.7896 26.6622L25.713 26.9314L26.4884 27.1898ZM29.2866 26.038L28.0975 26.3352C28.7927 26.0707 29.3718 25.6454 29.8226 25.2094C30.3716 24.6784 30.7553 24.1074 30.9472 23.7236L30.9601 23.6979L30.9699 23.6708C31.3206 22.7062 31.7068 21.0774 31.7499 19.2739C31.7928 17.4727 31.4945 15.447 30.424 13.7342C29.3048 11.9435 27.3672 11.2851 25.4991 11.0533C25.3297 11.0323 25.1594 11.0147 24.9888 11H26.4384L28.3458 11.4768L30.7529 12.4397L32.6716 13.8787C33.1545 14.3619 34.0556 15.2839 34.5149 17.1213L34.5196 17.1399L34.5257 17.1581C34.7367 17.7914 34.7104 18.5687 34.5704 19.3492C34.4317 20.1218 34.1929 20.8403 34.0257 21.3419L33.563 22.7299L32.6757 23.6172L29.2866 26.038ZM20 11.4992V44.9992H17.5V11H20V11.4992Z" fill="#900404" stroke="#900404"/>
</svg>
