<svg width="40" height="40" viewBox="0 0 40 40" fill="none" xmlns="http://www.w3.org/2000/svg">
<path fill-rule="evenodd" clip-rule="evenodd" d="M31.6789 3.5103C29.5388 4.14467 27.2157 5.47192 25.438 6.66546C24.7365 7.13646 23.7872 6.9479 23.3176 6.24431C22.848 5.54072 23.036 4.58852 23.7375 4.11752C25.607 2.8623 28.2322 1.33471 30.8125 0.569883C33.3031 -0.168357 36.416 -0.36575 38.4057 2.08843C40.2888 4.41103 39.9286 7.60535 39.1611 10.14C38.3654 12.7676 36.9557 15.2892 35.8902 16.8345C35.8145 16.9511 35.7351 17.0737 35.652 17.202C33.6686 20.263 29.6072 26.531 24.7702 30.3583C24.1074 30.8827 23.1463 30.7689 22.6234 30.1041C22.1006 29.4394 22.214 28.4754 22.8768 27.951C27.3037 24.4483 31.1272 18.5545 33.1404 15.4511C33.2093 15.345 33.276 15.2421 33.3406 15.1427L33.3526 15.1243L33.3651 15.1062C34.3041 13.7477 35.5532 11.5038 36.236 9.24898C36.9501 6.89068 36.8862 5.07412 36.0339 4.02287C35.2883 3.1032 33.9087 2.84935 31.6789 3.5103Z" fill="black"/>
<path fill-rule="evenodd" clip-rule="evenodd" d="M8.6678 36.5046C11.038 35.8118 13.5804 34.4206 15.33 33.2458C16.0315 32.7748 16.9809 32.9633 17.4505 33.6669C17.9201 34.3705 17.7321 35.3227 17.0306 35.7937C15.1331 37.0677 12.3003 38.6366 9.52309 39.4483C8.13591 39.8538 6.66721 40.0991 5.29108 39.9615C3.88451 39.8209 2.5095 39.2681 1.50851 38.0334C-0.374548 35.7108 -0.0143433 32.5165 0.753187 29.9818C1.54888 27.3542 2.95867 24.8325 4.02414 23.2872C5.96219 20.3059 10.2245 14.2835 15.2336 10.3201C15.8964 9.7957 16.8575 9.90947 17.3804 10.5742C17.9032 11.239 17.7898 12.2029 17.127 12.7274C12.5179 16.3743 8.47066 22.0589 6.57366 24.9791L6.56168 24.9976L6.54918 25.0157C5.61019 26.3742 4.36106 28.618 3.67826 30.8729C2.96414 33.2312 3.02801 35.0477 3.88031 36.099C4.24699 36.5512 4.78568 36.8297 5.59429 36.9105C6.43334 36.9944 7.48132 36.8514 8.6678 36.5046Z" fill="black"/>
<path fill-rule="evenodd" clip-rule="evenodd" d="M36.3953 31.6951C35.7563 29.5399 34.4217 27.1916 33.2444 25.3957C32.7806 24.6883 32.9766 23.7377 33.682 23.2724C34.3874 22.8071 35.3351 23.0034 35.7988 23.7108C37.025 25.5812 38.5572 28.2292 39.3255 30.8204C40.0647 33.3133 40.279 36.4659 37.7558 38.4248C35.4007 40.2532 32.2108 39.8474 29.6785 39.0447C27.0535 38.2127 24.5432 36.7718 23.0074 35.688C20.0746 33.736 14.3013 29.7856 10.3863 24.7267C9.86879 24.058 9.98988 23.0949 10.6568 22.5756C11.3237 22.0564 12.2839 22.1776 12.8014 22.8463C16.3832 27.4746 21.7781 31.19 24.7158 33.1448L24.734 33.1568L24.7518 33.1694C26.1031 34.1254 28.3408 35.4049 30.6003 36.1211C32.9629 36.87 34.8052 36.8386 35.885 36.0003C36.7969 35.2924 37.0635 33.9485 36.3953 31.6951Z" fill="black"/>
<path fill-rule="evenodd" clip-rule="evenodd" d="M3.60821 8.17049C4.24814 10.3487 5.58413 12.7193 6.7581 14.5103C7.22175 15.2176 7.02573 16.1683 6.32028 16.6337C5.61482 17.099 4.66708 16.9029 4.20343 16.1955C2.97434 14.3205 1.44331 11.6508 0.675804 9.0384C-0.0607522 6.53134 -0.278486 3.35361 2.2467 1.39306C4.60207 -0.435648 7.79193 -0.0301586 10.3242 0.772241C12.9491 1.604 15.4592 3.04464 16.9949 4.12833C19.9415 6.08965 25.706 10.1237 29.6161 15.1765C30.1336 15.8452 30.0124 16.8083 29.3455 17.3276C28.6785 17.847 27.7183 17.7259 27.2008 17.0572C23.6151 12.4235 18.2096 8.61677 15.2862 6.67171L15.2681 6.65962L15.2503 6.64701C13.8991 5.6912 11.6614 4.41191 9.40198 3.69595C7.03952 2.94735 5.19716 2.97887 4.11728 3.81729C3.20721 4.52386 2.93733 5.88698 3.60821 8.17049Z" fill="black"/>
<path fill-rule="evenodd" clip-rule="evenodd" d="M19.9844 22.1688C21.3414 22.1688 22.3981 21.0813 22.3981 19.7933C22.3981 18.5052 21.3414 17.4177 19.9844 17.4177C18.6274 17.4177 17.5707 18.5052 17.5707 19.7933C17.5707 21.0813 18.6274 22.1688 19.9844 22.1688ZM19.9844 25.2349C23.0058 25.2349 25.4551 22.7986 25.4551 19.7933C25.4551 16.7879 23.0058 14.3516 19.9844 14.3516C16.963 14.3516 14.5137 16.7879 14.5137 19.7933C14.5137 22.7986 16.963 25.2349 19.9844 25.2349Z" fill="black"/>
</svg>
