<svg width="150" height="46" viewBox="0 0 150 46" fill="none" xmlns="http://www.w3.org/2000/svg">
<path d="M22.0387 4.02486L23.12 4.03337L23.0939 7.35465C23.091 7.72756 22.9993 8.05316 22.819 8.33145C22.6403 8.60974 22.3914 8.82589 22.0722 8.97988C21.753 9.1322 21.382 9.2067 20.9591 9.20337C20.5346 9.20003 20.1639 9.1197 19.8472 8.96237C19.5304 8.80338 19.2849 8.58334 19.1106 8.30227C18.9364 8.02119 18.8507 7.6942 18.8536 7.32128L18.8798 4L19.9611 4.00851L19.9357 7.23739C19.9341 7.43217 19.9752 7.60565 20.0589 7.75781C20.1443 7.90999 20.2649 8.02998 20.4207 8.11778C20.5765 8.20558 20.7585 8.2503 20.9666 8.25194C21.1763 8.25359 21.359 8.21174 21.5145 8.12639C21.6717 8.04105 21.7933 7.92297 21.8794 7.77214C21.9672 7.62132 22.0118 7.44852 22.0133 7.25374L22.0387 4.02486Z" fill="black"/>
<path d="M28.6025 5.13168L27.4281 10.1094L26.5191 9.895L25.0926 6.25109L25.0562 6.24249L24.317 9.37548L23.2646 9.12719L24.439 4.14941L25.3626 4.36731L26.7726 8.00477L26.8164 8.01509L27.5549 4.88453L28.6025 5.13168Z" fill="black"/>
<path d="M30.4248 6.19238L29.4888 10.1611L29.5296 10.1855L32.5888 7.48831L33.6171 8.1042L29.4767 11.586L28.2812 10.87L29.3944 5.5752L30.4248 6.19238Z" fill="black"/>
<path fill-rule="evenodd" clip-rule="evenodd" d="M20.9525 42.7712C29.3019 42.7712 36.2093 36.6596 37.3581 28.7092H32.5539C31.457 34.058 26.6797 38.0838 20.9525 38.0838C15.2253 38.0838 10.448 34.058 9.35111 28.7092H4.54688C5.69571 36.6596 12.6031 42.7712 20.9525 42.7712ZM4.54688 24.0219C5.69571 16.0715 12.6031 9.95996 20.9525 9.95996C29.3019 9.95996 36.2093 16.0715 37.3581 24.0219H32.5539C31.457 18.6731 26.6797 14.6472 20.9525 14.6472C15.2253 14.6472 10.448 18.6731 9.35111 24.0219H4.54688Z" fill="black"/>
<path d="M2.5274 18.1582L41 28.5446L39.4726 34.2024L1 23.816L2.5274 18.1582Z" fill="black"/>
<path d="M52.1494 13.2726H53.9946V18.9402C53.9946 19.5766 53.8426 20.1334 53.5387 20.6107C53.2375 21.088 52.8156 21.4601 52.273 21.7272C51.7304 21.9914 51.0983 22.1235 50.3767 22.1235C49.6523 22.1235 49.0188 21.9914 48.4762 21.7272C47.9335 21.4601 47.5117 21.088 47.2105 20.6107C46.9094 20.1334 46.7588 19.5766 46.7588 18.9402V13.2726H48.604V18.7826C48.604 19.115 48.6764 19.4104 48.8213 19.6689C48.9691 19.9275 49.1764 20.1306 49.4435 20.2783C49.7105 20.426 50.0216 20.4999 50.3767 20.4999C50.7347 20.4999 51.0458 20.426 51.31 20.2783C51.577 20.1306 51.783 19.9275 51.9279 19.6689C52.0756 19.4104 52.1494 19.115 52.1494 18.7826V13.2726ZM62.6444 13.2726V21.9999H61.0507L57.2538 16.507H57.1899V21.9999H55.3447V13.2726H56.964L60.7311 18.7613H60.8078V13.2726H62.6444ZM65.8461 13.2726V21.9999H64.0009V13.2726H65.8461ZM68.7729 13.2726L70.8823 19.9033H70.9633L73.0769 13.2726H75.1224L72.1138 21.9999H69.736L66.7232 13.2726H68.7729ZM76.0048 21.9999V13.2726H81.8855V14.7939H77.85V16.8735H81.5829V18.3948H77.85V20.4786H81.9025V21.9999H76.0048ZM83.1844 21.9999V13.2726H86.6276C87.2867 13.2726 87.8492 13.3905 88.3151 13.6263C88.7839 13.8593 89.1404 14.1902 89.3847 14.6192C89.6319 15.0454 89.7555 15.5468 89.7555 16.1235C89.7555 16.703 89.6305 17.2016 89.3805 17.6192C89.1305 18.034 88.7683 18.3522 88.2938 18.5738C87.8222 18.7954 87.2512 18.9061 86.5808 18.9061H84.2754V17.4232H86.2825C86.6347 17.4232 86.9273 17.3749 87.1603 17.2783C87.3933 17.1817 87.5666 17.0368 87.6802 16.8437C87.7967 16.6505 87.8549 16.4104 87.8549 16.1235C87.8549 15.8337 87.7967 15.5894 87.6802 15.3905C87.5666 15.1917 87.3918 15.0411 87.156 14.9388C86.9231 14.8337 86.6291 14.7811 86.2739 14.7811H85.0296V21.9999H83.1844ZM87.8975 18.0283L90.0665 21.9999H88.0296L85.9075 18.0283H87.8975ZM95.6258 15.7826C95.5917 15.4388 95.4454 15.1718 95.1869 14.9814C94.9284 14.7911 94.5775 14.6959 94.1343 14.6959C93.8332 14.6959 93.5789 14.7385 93.3716 14.8238C93.1642 14.9061 93.0051 15.0212 92.8943 15.1689C92.7863 15.3167 92.7324 15.4843 92.7324 15.6718C92.7267 15.828 92.7593 15.9644 92.8304 16.0809C92.9042 16.1973 93.0051 16.2982 93.1329 16.3834C93.2608 16.4658 93.4085 16.5383 93.5761 16.6008C93.7437 16.6604 93.9227 16.7115 94.113 16.7542L94.8971 16.9417C95.2778 17.0269 95.6272 17.1405 95.9454 17.2826C96.2636 17.4246 96.5392 17.5993 96.7721 17.8067C97.0051 18.0141 97.1855 18.2584 97.3133 18.5397C97.444 18.8209 97.5108 19.1434 97.5136 19.507C97.5108 20.0411 97.3744 20.5042 97.1045 20.8962C96.8375 21.2854 96.4511 21.588 95.9454 21.8039C95.4426 22.0169 94.8361 22.1235 94.1258 22.1235C93.4213 22.1235 92.8076 22.0155 92.2849 21.7996C91.765 21.5837 91.3588 21.2641 91.0662 20.8408C90.7764 20.4147 90.6244 19.8877 90.6102 19.2598H92.3957C92.4156 19.5525 92.4994 19.7968 92.6471 19.9928C92.7977 20.186 92.998 20.3323 93.248 20.4317C93.5008 20.5283 93.7863 20.5766 94.1045 20.5766C94.417 20.5766 94.6883 20.5311 94.9184 20.4402C95.1514 20.3493 95.3318 20.2229 95.4596 20.061C95.5875 19.899 95.6514 19.713 95.6514 19.5027C95.6514 19.3067 95.5932 19.1419 95.4767 19.0084C95.363 18.8749 95.1954 18.7613 94.9738 18.6675C94.7551 18.5738 94.4866 18.4885 94.1684 18.4118L93.2182 18.1732C92.4824 17.9942 91.9014 17.7144 91.4753 17.3337C91.0491 16.953 90.8375 16.4402 90.8403 15.7954C90.8375 15.2669 90.9781 14.8053 91.2622 14.4104C91.5491 14.0155 91.9426 13.7073 92.4426 13.4857C92.9426 13.2641 93.5108 13.1533 94.1471 13.1533C94.7949 13.1533 95.3602 13.2641 95.8432 13.4857C96.3289 13.7073 96.7068 14.0155 96.9767 14.4104C97.2466 14.8053 97.3858 15.2627 97.3943 15.7826H95.6258ZM98.5867 21.9999V13.2726H104.467V14.7939H100.432V16.8735H104.165V18.3948H100.432V20.4786H104.484V21.9999H98.5867Z" fill="black"/>
<path d="M46.7588 34.2565V25.5293H52.6395V27.0506H48.604V29.1301H52.3369V30.6514H48.604V32.7352H52.6565V34.2565H46.7588ZM61.2382 25.5293V34.2565H59.6444L55.8476 28.7636H55.7836V34.2565H53.9385V25.5293H55.5578L59.3248 31.0179H59.4015V25.5293H61.2382ZM62.2623 27.0506V25.5293H69.4299V27.0506H66.758V34.2565H64.9342V27.0506H62.2623ZM70.4423 34.2565V25.5293H76.323V27.0506H72.2875V29.1301H76.0204V30.6514H72.2875V32.7352H76.3401V34.2565H70.4423ZM77.622 34.2565V25.5293H81.0652C81.7243 25.5293 82.2868 25.6472 82.7527 25.883C83.2214 26.1159 83.5779 26.4469 83.8223 26.8759C84.0694 27.302 84.193 27.8034 84.193 28.3801C84.193 28.9597 84.068 29.4582 83.818 29.8759C83.568 30.2906 83.2058 30.6088 82.7314 30.8304C82.2598 31.052 81.6887 31.1628 81.0183 31.1628H78.7129V29.6798H80.72C81.0723 29.6798 81.3649 29.6315 81.5978 29.5349C81.8308 29.4384 82.0041 29.2935 82.1177 29.1003C82.2342 28.9071 82.2924 28.667 82.2924 28.3801C82.2924 28.0903 82.2342 27.846 82.1177 27.6472C82.0041 27.4483 81.8294 27.2977 81.5936 27.1955C81.3606 27.0903 81.0666 27.0378 80.7115 27.0378H79.4671V34.2565H77.622ZM82.335 30.2849L84.5041 34.2565H82.4671L80.345 30.2849H82.335ZM84.9966 27.0506V25.5293H92.1642V27.0506H89.4923V34.2565H87.6685V27.0506H84.9966ZM93.6145 34.2565H91.6372L94.65 25.5293H97.0278L100.036 34.2565H98.0591L95.873 27.5236H95.8048L93.6145 34.2565ZM93.4909 30.8261H98.1613V32.2665H93.4909V30.8261ZM102.764 25.5293V34.2565H100.918V25.5293H102.764ZM111.413 25.5293V34.2565H109.82L106.023 28.7636H105.959V34.2565H104.114V25.5293H105.733L109.5 31.0179H109.577V25.5293H111.413ZM112.77 25.5293H115.046L117.449 31.3929H117.551L119.955 25.5293H122.23V34.2565H120.44V28.5761H120.368L118.109 34.2139H116.891L114.632 28.5548H114.56V34.2565H112.77V25.5293ZM123.582 34.2565V25.5293H129.463V27.0506H125.428V29.1301H129.161V30.6514H125.428V32.7352H129.48V34.2565H123.582ZM138.062 25.5293V34.2565H136.468L132.671 28.7636H132.607V34.2565H130.762V25.5293H132.381L136.148 31.0179H136.225V25.5293H138.062ZM139.086 27.0506V25.5293H146.254V27.0506H143.582V34.2565H141.758V27.0506H139.086Z" fill="black"/>
</svg>
